STARTFONT 2.1

COMMENT
COMMENT  6x11_latin1.bdf --
COMMENT
COMMENT     Font source for 6x11 latin-1 font.
COMMENT
COMMENT  Copyright (c) 2001-2005 Bjorn Gustavsson
COMMENT
COMMENT  See the file "license.terms" for information on usage and redistribution
COMMENT  of this file, and for a DISCLAIMER OF ALL WARRANTIES.
COMMENT
COMMENT     $Id: 6x11_latin1.bdf,v 1.2 2005/04/08 05:46:54 bjorng Exp $
COMMENT

FONT "6x11"
SIZE 10 100 100
STARTPROPERTIES 3
FOUNDRY "Wings3D"
CHARSET_REGISTRY "ISO8859"
CHARSET_ENCODING "1"
ENDPROPERTIES
CHARS 192
STARTCHAR solid
ENCODING 0
DWIDTH 6 0
BBX 6 11 0 -2
BITMAP
FF
FF
FF
FF
FF
FF
FF
FF
FF
FF
FF
ENDCHAR
STARTCHAR space
ENCODING 32
DWIDTH 3 0
BBX 3 11 0 -2
BITMAP
00
00
00
00
00
00
00
00
00
00
00
ENDCHAR
STARTCHAR exclam
ENCODING 33
DWIDTH 6 0
BBX 1 7 2 0
BITMAP
80
80
80
80
80
00
80
ENDCHAR
STARTCHAR quotedbl
ENCODING 34
DWIDTH 6 0
BBX 3 3 1 4
BITMAP
A0
A0
A0
ENDCHAR
STARTCHAR numbersign
ENCODING 35
DWIDTH 6 0
BBX 5 7 0 0
BITMAP
50
50
F8
50
F8
50
50
ENDCHAR
STARTCHAR dollar
ENCODING 36
DWIDTH 6 0
BBX 5 7 0 0
BITMAP
20
70
A0
70
28
70
20
ENDCHAR
STARTCHAR percent
ENCODING 37
DWIDTH 6 0
BBX 5 7 0 0
BITMAP
48
A8
50
20
50
A8
90
ENDCHAR
STARTCHAR ampersand
ENCODING 38
DWIDTH 6 0
BBX 5 7 0 0
BITMAP
40
A0
A0
40
A8
90
68
ENDCHAR
STARTCHAR quoteright
ENCODING 39
DWIDTH 6 0
BBX 1 3 2 4
BITMAP
80
80
80
ENDCHAR
STARTCHAR parenleft
ENCODING 40
DWIDTH 6 0
BBX 3 7 1 0
BITMAP
20
40
80
80
80
40
20
ENDCHAR
STARTCHAR parenright
ENCODING 41
DWIDTH 6 0
BBX 3 7 1 0
BITMAP
80
40
20
20
20
40
80
ENDCHAR
STARTCHAR asterisk
ENCODING 42
DWIDTH 6 0
BBX 5 5 0 1
BITMAP
88
50
F8
50
88
ENDCHAR
STARTCHAR plus
ENCODING 43
DWIDTH 6 0
BBX 5 5 0 1
BITMAP
20
20
F8
20
20
ENDCHAR
STARTCHAR comma
ENCODING 44
DWIDTH 3 0
BBX 2 2 0 -1
BITMAP
40
80
ENDCHAR
STARTCHAR hyphen
ENCODING 45
DWIDTH 5 0
BBX 4 1 0 3
BITMAP
F0
ENDCHAR
STARTCHAR period
ENCODING 46
DWIDTH 5 0
BBX 3 3 1 -1
BITMAP
40
E0
40
ENDCHAR
STARTCHAR slash
ENCODING 47
DWIDTH 6 0
BBX 5 7 0 0
BITMAP
08
08
10
20
40
80
80
ENDCHAR
STARTCHAR zero
ENCODING 48
DWIDTH 6 0
BBX 5 7 0 0
BITMAP
20
50
88
88
88
50
20
ENDCHAR
STARTCHAR one
ENCODING 49
DWIDTH 6 0
BBX 5 7 0 0
BITMAP
20
60
A0
20
20
20
F8
ENDCHAR
STARTCHAR two
ENCODING 50
DWIDTH 6 0
BBX 5 7 0 0
BITMAP
70
88
08
30
40
80
F8
ENDCHAR
STARTCHAR three
ENCODING 51
DWIDTH 6 0
BBX 5 7 0 0
BITMAP
F8
08
10
30
08
88
70
ENDCHAR
STARTCHAR four
ENCODING 52
DWIDTH 6 0
BBX 5 7 0 0
BITMAP
10
30
50
90
F8
10
10
ENDCHAR
STARTCHAR five
ENCODING 53
DWIDTH 6 0
BBX 5 7 0 0
BITMAP
F8
80
B0
C8
08
88
70
ENDCHAR
STARTCHAR six
ENCODING 54
DWIDTH 6 0
BBX 5 7 0 0
BITMAP
30
40
80
B0
C8
88
70
ENDCHAR
STARTCHAR seven
ENCODING 55
DWIDTH 6 0
BBX 5 7 0 0
BITMAP
F8
08
10
10
20
40
40
ENDCHAR
STARTCHAR eight
ENCODING 56
DWIDTH 6 0
BBX 5 7 0 0
BITMAP
70
88
88
70
88
88
70
ENDCHAR
STARTCHAR nine
ENCODING 57
DWIDTH 6 0
BBX 5 7 0 0
BITMAP
70
88
98
68
08
10
60
ENDCHAR
STARTCHAR colon
ENCODING 58
DWIDTH 5 0
BBX 5 7 1 0
BITMAP
40
E0
40
00
40
E0
40
ENDCHAR
STARTCHAR semicolon
ENCODING 59
DWIDTH 6 0
BBX 3 7 1 -1
BITMAP
40
E0
40
00
60
40
80
ENDCHAR
STARTCHAR less
ENCODING 60
DWIDTH 6 0
BBX 4 7 1 0
BITMAP
10
20
40
80
40
20
10
ENDCHAR
STARTCHAR equal
ENCODING 61
DWIDTH 6 0
BBX 5 3 0 2
BITMAP
F8
00
F8
ENDCHAR
STARTCHAR greater
ENCODING 62
DWIDTH 6 0
BBX 4 7 1 0
BITMAP
80
40
20
10
20
40
80
ENDCHAR
STARTCHAR question
ENCODING 63
DWIDTH 6 0
BBX 5 7 0 0
BITMAP
70
88
10
20
20
00
20
ENDCHAR
STARTCHAR at
ENCODING 64
DWIDTH 6 0
BBX 5 7 0 0
BITMAP
70
88
98
A8
B0
80
70
ENDCHAR
STARTCHAR A
ENCODING 65
DWIDTH 8 0
BBX 7 7 0 0
BITMAP
10
28
28
44
7C
82
82
ENDCHAR
STARTCHAR B
ENCODING 66
DWIDTH 6 0
BBX 5 7 0 0
BITMAP
F0
48
48
70
48
48
F0
ENDCHAR
STARTCHAR C
ENCODING 67
DWIDTH 6 0
BBX 5 7 0 0
BITMAP
70
88
80
80
80
88
70
ENDCHAR
STARTCHAR D
ENCODING 68
DWIDTH 6 0
BBX 5 7 0 0
BITMAP
F0
88
88
88
88
88
F0
ENDCHAR
STARTCHAR E
ENCODING 69
DWIDTH 6 0
BBX 5 7 0 0
BITMAP
F8
80
80
F0
80
80
F8
ENDCHAR
STARTCHAR F
ENCODING 70
DWIDTH 6 0
BBX 5 7 0 0
BITMAP
F8
80
80
F0
80
80
80
ENDCHAR
STARTCHAR G
ENCODING 71
DWIDTH 6 0
BBX 5 7 0 0
BITMAP
70
88
80
80
98
88
70
ENDCHAR
STARTCHAR H
ENCODING 72
DWIDTH 6 0
BBX 5 7 0 0
BITMAP
88
88
88
F8
88
88
88
ENDCHAR
STARTCHAR I
ENCODING 73
DWIDTH 4 0
BBX 3 7 0 0
BITMAP
E0
40
40
40
40
40
E0
ENDCHAR
STARTCHAR J
ENCODING 74
DWIDTH 6 0
BBX 5 7 0 0
BITMAP
38
10
10
10
10
90
60
ENDCHAR
STARTCHAR K
ENCODING 75
DWIDTH 6 0
BBX 5 7 0 0
BITMAP
88
90
A0
C0
A0
90
88
ENDCHAR
STARTCHAR L
ENCODING 76
DWIDTH 6 0
BBX 5 7 0 0
BITMAP
80
80
80
80
80
80
F8
ENDCHAR
STARTCHAR M
ENCODING 77
DWIDTH 6 0
BBX 5 7 0 0
BITMAP
88
88
D8
A8
88
88
88
ENDCHAR
STARTCHAR N
ENCODING 78
DWIDTH 6 0
BBX 5 7 0 0
BITMAP
88
88
C8
A8
98
88
88
ENDCHAR
STARTCHAR O
ENCODING 79
DWIDTH 6 0
BBX 5 7 0 0
BITMAP
70
88
88
88
88
88
70
ENDCHAR
STARTCHAR P
ENCODING 80
DWIDTH 6 0
BBX 5 7 0 0
BITMAP
F0
88
88
F0
80
80
80
ENDCHAR
STARTCHAR Q
ENCODING 81
DWIDTH 6 0
BBX 5 8 0 -1
BITMAP
70
88
88
88
88
A8
70
08
ENDCHAR
STARTCHAR R
ENCODING 82
DWIDTH 6 0
BBX 5 7 0 0
BITMAP
F0
88
88
F0
A0
90
88
ENDCHAR
STARTCHAR S
ENCODING 83
DWIDTH 6 0
BBX 5 7 0 0
BITMAP
70
88
80
70
08
88
70
ENDCHAR
STARTCHAR T
ENCODING 84
DWIDTH 6 0
BBX 5 7 0 0
BITMAP
F8
20
20
20
20
20
20
ENDCHAR
STARTCHAR U
ENCODING 85
DWIDTH 6 0
BBX 5 7 0 0
BITMAP
88
88
88
88
88
88
70
ENDCHAR
STARTCHAR V
ENCODING 86
DWIDTH 6 0
BBX 5 7 0 0
BITMAP
88
88
88
50
50
50
20
ENDCHAR
STARTCHAR W
ENCODING 87
DWIDTH 6 0
BBX 5 7 0 0
BITMAP
88
88
88
A8
A8
D8
88
ENDCHAR
STARTCHAR X
ENCODING 88
DWIDTH 6 0
BBX 5 7 0 0
BITMAP
88
88
50
20
50
88
88
ENDCHAR
STARTCHAR Y
ENCODING 89
DWIDTH 6 0
BBX 5 7 0 0
BITMAP
88
88
50
20
20
20
20
ENDCHAR
STARTCHAR Z
ENCODING 90
DWIDTH 6 0
BBX 5 7 0 0
BITMAP
F8
08
10
20
40
80
F8
ENDCHAR
STARTCHAR bracketleft
ENCODING 91
DWIDTH 6 0
BBX 3 7 1 0
BITMAP
E0
80
80
80
80
80
E0
ENDCHAR
STARTCHAR backslash
ENCODING 92
DWIDTH 6 0
BBX 5 7 0 0
BITMAP
80
80
40
20
10
08
08
ENDCHAR
STARTCHAR bracketright
ENCODING 93
DWIDTH 6 0
BBX 3 7 1 0
BITMAP
E0
20
20
20
20
20
E0
ENDCHAR
STARTCHAR asciicircum
ENCODING 94
DWIDTH 6 0
BBX 5 3 0 4
BITMAP
20
50
88
ENDCHAR
STARTCHAR underscore
ENCODING 95
DWIDTH 6 0
BBX 5 1 0 -1
BITMAP
F8
ENDCHAR
STARTCHAR quoteleft
ENCODING 96
DWIDTH 6 0
BBX 2 2 2 6
BITMAP
80
40
ENDCHAR
STARTCHAR a
ENCODING 97
DWIDTH 6 0
BBX 5 5 0 0
BITMAP
70
08
78
88
78
ENDCHAR
STARTCHAR b
ENCODING 98
DWIDTH 6 0
BBX 5 7 0 0
BITMAP
80
80
F0
88
88
88
F0
ENDCHAR
STARTCHAR c
ENCODING 99
DWIDTH 5 0
BBX 4 5 0 0
BITMAP
70
80
80
80
70
ENDCHAR
STARTCHAR d
ENCODING 100
DWIDTH 6 0
BBX 5 7 0 0
BITMAP
08
08
78
88
88
88
78
ENDCHAR
STARTCHAR e
ENCODING 101
DWIDTH 6 0
BBX 5 5 0 0
BITMAP
70
88
F8
80
70
ENDCHAR
STARTCHAR f
ENCODING 102
DWIDTH 5 0
BBX 4 7 0 0
BITMAP
30
40
40
E0
40
40
40
ENDCHAR
STARTCHAR g
ENCODING 103
DWIDTH 6 0
BBX 5 7 0 -2
BITMAP
78
88
88
88
78
08
70
ENDCHAR
STARTCHAR h
ENCODING 104
DWIDTH 6 0
BBX 5 7 0 0
BITMAP
80
80
F0
88
88
88
88
ENDCHAR
STARTCHAR i
ENCODING 105
DWIDTH 2 0
BBX 1 7 0 0
BITMAP
80
00
80
80
80
80
80
ENDCHAR
STARTCHAR j
ENCODING 106
DWIDTH 4 0
BBX 3 9 0 -2
BITMAP
20
00
20
20
20
20
20
20
C0
ENDCHAR
STARTCHAR k
ENCODING 107
DWIDTH 6 0
BBX 5 7 0 0
BITMAP
80
80
88
90
E0
90
88
ENDCHAR
STARTCHAR l
ENCODING 108
DWIDTH 2 0
BBX 1 7 0 0
BITMAP
80
80
80
80
80
80
80
ENDCHAR
STARTCHAR m
ENCODING 109
DWIDTH 8 0
BBX 7 5 0 0
BITMAP
EC
92
92
92
92
ENDCHAR
STARTCHAR n
ENCODING 110
DWIDTH 6 0
BBX 5 5 0 0
BITMAP
B0
C8
88
88
88
ENDCHAR
STARTCHAR o
ENCODING 111
DWIDTH 6 0
BBX 5 5 0 0
BITMAP
70
88
88
88
70
ENDCHAR
STARTCHAR p
ENCODING 112
DWIDTH 6 0
BBX 5 7 0 -2
BITMAP
F0
88
88
88
F0
80
80
ENDCHAR
STARTCHAR q
ENCODING 113
DWIDTH 6 0
BBX 5 7 0 -2
BITMAP
68
98
88
98
68
08
08
ENDCHAR
STARTCHAR r
ENCODING 114
DWIDTH 5 0
BBX 4 5 0 0
BITMAP
B0
C0
80
80
80
ENDCHAR
STARTCHAR s
ENCODING 115
DWIDTH 5 0
BBX 4 5 0 0
BITMAP
70
80
60
10
F0
ENDCHAR
STARTCHAR t
ENCODING 116
DWIDTH 5 0
BBX 4 7 0 0
BITMAP
40
40
F0
40
40
40
70
ENDCHAR
STARTCHAR u
ENCODING 117
DWIDTH 5 0
BBX 4 5 0 0
BITMAP
90
90
90
90
70
ENDCHAR
STARTCHAR v
ENCODING 118
DWIDTH 6 0
BBX 5 5 0 0
BITMAP
88
88
50
50
20
ENDCHAR
STARTCHAR w
ENCODING 119
DWIDTH 8 0
BBX 7 5 0 0
BITMAP
92
AA
AA
44
44
ENDCHAR
STARTCHAR x
ENCODING 120
DWIDTH 6 0
BBX 5 5 0 0
BITMAP
88
50
20
50
88
ENDCHAR
STARTCHAR y
ENCODING 121
DWIDTH 7 0
BBX 6 7 0 -2
BITMAP
84
48
48
30
20
40
80
ENDCHAR
STARTCHAR z
ENCODING 122
DWIDTH 6 0
BBX 5 5 0 0
BITMAP
F8
10
20
40
F8
ENDCHAR
STARTCHAR braceleft
ENCODING 123
DWIDTH 6 0
BBX 4 7 1 0
BITMAP
30
40
20
C0
20
40
30
ENDCHAR
STARTCHAR bar
ENCODING 124
DWIDTH 2 0
BBX 1 9 0 -1
BITMAP
80
80
80
80
80
80
80
80
80
ENDCHAR
STARTCHAR braceright
ENCODING 125
DWIDTH 6 0
BBX 4 7 1 0
BITMAP
C0
20
40
30
40
20
C0
ENDCHAR
STARTCHAR asciitilde
ENCODING 126
DWIDTH 6 0
BBX 5 3 0 4
BITMAP
48
A8
90
ENDCHAR
STARTCHAR ascii160
ENCODING 160
DWIDTH 2 0
BBX 0 0 0 0
BITMAP
ENDCHAR
STARTCHAR ascii161
ENCODING 161
DWIDTH 6 0
BBX 1 7 2 0
BITMAP
80
00
80
80
80
80
80
ENDCHAR
STARTCHAR ascii162
ENCODING 162
DWIDTH 6 0
BBX 5 7 0 -1
BITMAP
20
78
A0
A0
A0
78
20
ENDCHAR
STARTCHAR ascii163
ENCODING 163
DWIDTH 6 0
BBX 5 7 0 0
BITMAP
30
48
40
E0
40
48
B0
ENDCHAR
STARTCHAR ascii164
ENCODING 164
DWIDTH 6 0
BBX 5 5 0 0
BITMAP
88
70
50
70
88
ENDCHAR
STARTCHAR ascii165
ENCODING 165
DWIDTH 6 0
BBX 5 8 0 -1
BITMAP
88
88
50
20
F8
20
20
20
ENDCHAR
STARTCHAR ascii166
ENCODING 166
DWIDTH 6 0
BBX 1 7 2 0
BITMAP
80
80
80
00
80
80
80
ENDCHAR
STARTCHAR ascii167
ENCODING 167
DWIDTH 6 0
BBX 5 8 0 -1
BITMAP
70
80
E0
90
48
38
08
70
ENDCHAR
STARTCHAR ascii168
ENCODING 168
DWIDTH 6 0
BBX 3 1 1 7
BITMAP
A0
ENDCHAR
STARTCHAR ascii169
ENCODING 169
DWIDTH 9 0
BBX 8 8 0 -1
BITMAP
3C
42
99
A1
A1
99
42
3C
ENDCHAR
STARTCHAR ascii170
ENCODING 170
DWIDTH 6 0
BBX 4 6 1 1
BITMAP
70
90
B0
50
00
F0
ENDCHAR
STARTCHAR ascii171
ENCODING 171
DWIDTH 6 0
BBX 6 5 0 0
BITMAP
24
48
90
48
24
ENDCHAR
STARTCHAR ascii172
ENCODING 172
DWIDTH 6 0
BBX 4 2 1 2
BITMAP
F0
10
ENDCHAR
STARTCHAR ascii173
ENCODING 173
DWIDTH 6 0
BBX 4 1 1 3
BITMAP
F0
ENDCHAR
STARTCHAR ascii174
ENCODING 174
DWIDTH 6 0
BBX 5 7 0 0
BITMAP
70
88
E8
C8
C8
88
70
ENDCHAR
STARTCHAR ascii175
ENCODING 175
DWIDTH 6 0
BBX 5 1 0 7
BITMAP
F8
ENDCHAR
STARTCHAR ascii176
ENCODING 176
DWIDTH 6 0
BBX 3 3 1 4
BITMAP
40
A0
40
ENDCHAR
STARTCHAR ascii177
ENCODING 177
DWIDTH 6 0
BBX 5 6 0 0
BITMAP
20
20
F8
20
20
F8
ENDCHAR
STARTCHAR ascii178
ENCODING 178
DWIDTH 6 0
BBX 4 5 1 3
BITMAP
60
90
20
40
F0
ENDCHAR
STARTCHAR ascii179
ENCODING 179
DWIDTH 6 0
BBX 4 5 1 3
BITMAP
E0
10
60
10
E0
ENDCHAR
STARTCHAR ascii180
ENCODING 180
DWIDTH 6 0
BBX 2 2 2 6
BITMAP
40
80
ENDCHAR
STARTCHAR ascii181
ENCODING 181
DWIDTH 6 0
BBX 5 6 0 -1
BITMAP
88
88
88
C8
B0
80
ENDCHAR
STARTCHAR ascii182
ENCODING 182
DWIDTH 6 0
BBX 5 7 0 0
BITMAP
78
E8
E8
68
28
28
28
ENDCHAR
STARTCHAR ascii183
ENCODING 183
DWIDTH 6 0
BBX 1 1 2 3
BITMAP
80
ENDCHAR
STARTCHAR ascii184
ENCODING 184
DWIDTH 6 0
BBX 2 2 2 -2
BITMAP
40
80
ENDCHAR
STARTCHAR ascii185
ENCODING 185
DWIDTH 6 0
BBX 3 5 1 3
BITMAP
40
C0
40
40
E0
ENDCHAR
STARTCHAR ascii186
ENCODING 186
DWIDTH 6 0
BBX 4 6 1 1
BITMAP
60
90
90
60
00
F0
ENDCHAR
STARTCHAR ascii187
ENCODING 187
DWIDTH 6 0
BBX 6 5 0 0
BITMAP
90
48
24
48
90
ENDCHAR
STARTCHAR ascii188
ENCODING 188
DWIDTH 6 0
BBX 6 9 0 -1
BITMAP
40
C0
40
40
E4
0C
14
3C
04
ENDCHAR
STARTCHAR ascii189
ENCODING 189
DWIDTH 6 0
BBX 6 9 0 -1
BITMAP
40
C0
40
40
E8
14
04
08
1C
ENDCHAR
STARTCHAR ascii190
ENCODING 190
DWIDTH 6 0
BBX 5 9 0 -1
BITMAP
C0
20
40
20
C8
18
28
78
08
ENDCHAR
STARTCHAR ascii191
ENCODING 191
DWIDTH 6 0
BBX 5 7 0 0
BITMAP
20
00
20
20
40
88
70
ENDCHAR
STARTCHAR ascii192
ENCODING 192
DWIDTH 6 0
BBX 5 8 0 0
BITMAP
40
20
70
88
88
F8
88
88
ENDCHAR
STARTCHAR ascii193
ENCODING 193
DWIDTH 6 0
BBX 5 8 0 0
BITMAP
10
20
70
88
88
F8
88
88
ENDCHAR
STARTCHAR ascii194
ENCODING 194
DWIDTH 6 0
BBX 5 8 0 0
BITMAP
20
50
70
88
88
F8
88
88
ENDCHAR
STARTCHAR ascii195
ENCODING 195
DWIDTH 6 0
BBX 5 8 0 0
BITMAP
48
B0
70
88
88
F8
88
88
ENDCHAR
STARTCHAR ascii196
ENCODING 196
DWIDTH 6 0
BBX 5 8 0 0
BITMAP
50
00
70
88
88
F8
88
88
ENDCHAR
STARTCHAR ascii197
ENCODING 197
DWIDTH 6 0
BBX 5 8 0 0
BITMAP
20
50
70
88
88
F8
88
88
ENDCHAR
STARTCHAR ascii198
ENCODING 198
DWIDTH 6 0
BBX 6 7 0 0
BITMAP
3C
50
90
9C
F0
90
9C
ENDCHAR
STARTCHAR ascii199
ENCODING 199
DWIDTH 6 0
BBX 5 9 0 -2
BITMAP
70
88
80
80
80
88
70
20
40
ENDCHAR
STARTCHAR ascii200
ENCODING 200
DWIDTH 6 0
BBX 5 8 0 0
BITMAP
40
F8
80
80
F0
80
80
F8
ENDCHAR
STARTCHAR ascii201
ENCODING 201
DWIDTH 6 0
BBX 5 8 0 0
BITMAP
10
F8
80
80
F0
80
80
F8
ENDCHAR
STARTCHAR ascii202
ENCODING 202
DWIDTH 6 0
BBX 5 8 0 0
BITMAP
20
F8
80
80
F0
80
80
F8
ENDCHAR
STARTCHAR ascii203
ENCODING 203
DWIDTH 6 0
BBX 5 8 0 0
BITMAP
50
F8
80
80
F0
80
80
F8
ENDCHAR
STARTCHAR ascii204
ENCODING 204
DWIDTH 6 0
BBX 3 8 1 0
BITMAP
80
40
E0
40
40
40
40
E0
ENDCHAR
STARTCHAR ascii205
ENCODING 205
DWIDTH 6 0
BBX 3 8 1 0
BITMAP
20
40
E0
40
40
40
40
E0
ENDCHAR
STARTCHAR ascii206
ENCODING 206
DWIDTH 6 0
BBX 3 8 1 0
BITMAP
40
A0
E0
40
40
40
40
E0
ENDCHAR
STARTCHAR ascii207
ENCODING 207
DWIDTH 6 0
BBX 3 8 1 0
BITMAP
A0
00
E0
40
40
40
40
E0
ENDCHAR
STARTCHAR ascii208
ENCODING 208
DWIDTH 6 0
BBX 5 7 0 0
BITMAP
F0
48
48
E8
48
48
F0
ENDCHAR
STARTCHAR ascii209
ENCODING 209
DWIDTH 6 0
BBX 5 8 0 0
BITMAP
28
50
88
C8
A8
98
88
88
ENDCHAR
STARTCHAR ascii210
ENCODING 210
DWIDTH 6 0
BBX 5 8 0 0
BITMAP
40
20
70
88
88
88
88
70
ENDCHAR
STARTCHAR ascii211
ENCODING 211
DWIDTH 6 0
BBX 5 8 0 0
BITMAP
10
20
70
88
88
88
88
70
ENDCHAR
STARTCHAR ascii212
ENCODING 212
DWIDTH 6 0
BBX 5 8 0 0
BITMAP
20
50
70
88
88
88
88
70
ENDCHAR
STARTCHAR ascii213
ENCODING 213
DWIDTH 6 0
BBX 5 8 0 0
BITMAP
28
50
70
88
88
88
88
70
ENDCHAR
STARTCHAR ascii214
ENCODING 214
DWIDTH 6 0
BBX 5 8 0 0
BITMAP
50
00
70
88
88
88
88
70
ENDCHAR
STARTCHAR ascii215
ENCODING 215
DWIDTH 6 0
BBX 5 5 0 0
BITMAP
88
50
20
50
88
ENDCHAR
STARTCHAR ascii216
ENCODING 216
DWIDTH 6 0
BBX 5 7 0 0
BITMAP
70
98
98
A8
C8
C8
70
ENDCHAR
STARTCHAR ascii217
ENCODING 217
DWIDTH 6 0
BBX 5 8 0 0
BITMAP
40
20
88
88
88
88
88
70
ENDCHAR
STARTCHAR ascii218
ENCODING 218
DWIDTH 6 0
BBX 5 8 0 0
BITMAP
10
20
88
88
88
88
88
70
ENDCHAR
STARTCHAR ascii219
ENCODING 219
DWIDTH 6 0
BBX 5 8 0 0
BITMAP
20
50
00
88
88
88
88
70
ENDCHAR
STARTCHAR ascii220
ENCODING 220
DWIDTH 6 0
BBX 5 8 0 0
BITMAP
50
00
88
88
88
88
88
70
ENDCHAR
STARTCHAR ascii221
ENCODING 221
DWIDTH 6 0
BBX 5 8 0 0
BITMAP
10
20
88
88
50
20
20
20
ENDCHAR
STARTCHAR ascii222
ENCODING 222
DWIDTH 6 0
BBX 5 7 0 0
BITMAP
80
F0
88
F0
80
80
80
ENDCHAR
STARTCHAR ascii223
ENCODING 223
DWIDTH 6 0
BBX 5 7 0 0
BITMAP
70
88
90
A0
90
88
B0
ENDCHAR
STARTCHAR ascii224
ENCODING 224
DWIDTH 6 0
BBX 5 8 0 0
BITMAP
40
20
00
70
08
78
88
78
ENDCHAR
STARTCHAR ascii225
ENCODING 225
DWIDTH 6 0
BBX 5 8 0 0
BITMAP
10
20
00
70
08
78
88
78
ENDCHAR
STARTCHAR ascii226
ENCODING 226
DWIDTH 6 0
BBX 5 8 0 0
BITMAP
20
50
00
70
08
78
88
78
ENDCHAR
STARTCHAR ascii227
ENCODING 227
DWIDTH 6 0
BBX 5 8 0 0
BITMAP
28
50
00
70
08
78
88
78
ENDCHAR
STARTCHAR ascii228
ENCODING 228
DWIDTH 6 0
BBX 5 7 0 0
BITMAP
50
00
70
08
78
88
78
ENDCHAR
STARTCHAR ascii229
ENCODING 229
DWIDTH 6 0
BBX 5 8 0 0
BITMAP
20
50
20
70
08
78
88
78
ENDCHAR
STARTCHAR ascii230
ENCODING 230
DWIDTH 6 0
BBX 6 5 0 0
BITMAP
78
14
7C
90
7C
ENDCHAR
STARTCHAR ascii231
ENCODING 231
DWIDTH 6 0
BBX 5 7 0 -2
BITMAP
70
88
80
88
70
20
40
ENDCHAR
STARTCHAR ascii232
ENCODING 232
DWIDTH 6 0
BBX 5 8 0 0
BITMAP
40
20
00
70
88
F8
80
70
ENDCHAR
STARTCHAR ascii233
ENCODING 233
DWIDTH 6 0
BBX 5 8 0 0
BITMAP
10
20
00
70
88
F8
80
70
ENDCHAR
STARTCHAR ascii234
ENCODING 234
DWIDTH 6 0
BBX 5 8 0 0
BITMAP
20
50
00
70
88
F8
80
70
ENDCHAR
STARTCHAR ascii235
ENCODING 235
DWIDTH 6 0
BBX 5 7 0 0
BITMAP
50
00
70
88
F8
80
70
ENDCHAR
STARTCHAR ascii236
ENCODING 236
DWIDTH 6 0
BBX 3 8 1 0
BITMAP
80
40
00
C0
40
40
40
E0
ENDCHAR
STARTCHAR ascii237
ENCODING 237
DWIDTH 6 0
BBX 3 8 1 0
BITMAP
40
80
00
C0
40
40
40
E0
ENDCHAR
STARTCHAR ascii238
ENCODING 238
DWIDTH 6 0
BBX 3 8 1 0
BITMAP
40
A0
00
C0
40
40
40
E0
ENDCHAR
STARTCHAR ascii239
ENCODING 239
DWIDTH 6 0
BBX 3 7 1 0
BITMAP
A0
00
C0
40
40
40
E0
ENDCHAR
STARTCHAR ascii240
ENCODING 240
DWIDTH 6 0
BBX 5 7 0 0
BITMAP
C0
30
70
88
88
88
70
ENDCHAR
STARTCHAR ascii241
ENCODING 241
DWIDTH 6 0
BBX 5 8 0 0
BITMAP
28
50
00
B0
C8
88
88
88
ENDCHAR
STARTCHAR ascii242
ENCODING 242
DWIDTH 6 0
BBX 5 8 0 0
BITMAP
40
20
00
70
88
88
88
70
ENDCHAR
STARTCHAR ascii243
ENCODING 243
DWIDTH 6 0
BBX 5 8 0 0
BITMAP
10
20
00
70
88
88
88
70
ENDCHAR
STARTCHAR ascii244
ENCODING 244
DWIDTH 6 0
BBX 5 8 0 0
BITMAP
20
50
00
70
88
88
88
70
ENDCHAR
STARTCHAR ascii245
ENCODING 245
DWIDTH 6 0
BBX 5 8 0 0
BITMAP
28
50
00
70
88
88
88
70
ENDCHAR
STARTCHAR ascii246
ENCODING 246
DWIDTH 6 0
BBX 5 7 0 0
BITMAP
50
00
70
88
88
88
70
ENDCHAR
STARTCHAR ascii247
ENCODING 247
DWIDTH 6 0
BBX 5 5 0 1
BITMAP
20
00
F8
00
20
ENDCHAR
STARTCHAR ascii248
ENCODING 248
DWIDTH 6 0
BBX 5 5 0 0
BITMAP
78
98
A8
C8
F0
ENDCHAR
STARTCHAR ascii249
ENCODING 249
DWIDTH 6 0
BBX 5 8 0 0
BITMAP
40
20
00
88
88
88
98
68
ENDCHAR
STARTCHAR ascii250
ENCODING 250
DWIDTH 6 0
BBX 5 8 0 0
BITMAP
10
20
00
88
88
88
98
68
ENDCHAR
STARTCHAR ascii251
ENCODING 251
DWIDTH 6 0
BBX 5 8 0 0
BITMAP
20
50
00
88
88
88
98
68
ENDCHAR
STARTCHAR ascii252
ENCODING 252
DWIDTH 6 0
BBX 5 7 0 0
BITMAP
50
00
88
88
88
98
68
ENDCHAR
STARTCHAR ascii253
ENCODING 253
DWIDTH 6 0
BBX 5 9 0 -2
BITMAP
10
20
88
88
98
68
08
88
70
ENDCHAR
STARTCHAR ascii254
ENCODING 254
DWIDTH 6 0
BBX 5 8 0 -2
BITMAP
80
F0
88
88
88
F0
80
80
ENDCHAR
STARTCHAR ascii255
ENCODING 255
DWIDTH 6 0
BBX 5 9 0 -2
BITMAP
50
00
88
88
98
68
08
88
70
ENDCHAR
ENDFONT
